<?xml version="1.0" encoding="utf-8"?>
<!-- Generator: Adobe Illustrator 18.0.0, SVG Export Plug-In . SVG Version: 6.00 Build 0)  -->
<!DOCTYPE svg PUBLIC "-//W3C//DTD SVG 1.1//EN" "http://www.w3.org/Graphics/SVG/1.1/DTD/svg11.dtd">
<svg version="1.1" id="Слой_1" xmlns="http://www.w3.org/2000/svg" xmlns:xlink="http://www.w3.org/1999/xlink" x="0px" y="0px"
	 width="116px" height="116px" viewBox="0 -0.1 116 116" enable-background="new 0 -0.1 116 116" xml:space="preserve">
<g>
	<path fill="none" stroke="#45D3D3" stroke-width="2" stroke-miterlimit="10" d="M47,114h60.8c3.4,0,6.2-2.7,6.2-6.1V7.5
		c0-3.3-2.8-6.5-6.2-6.5H47.7C44.3,1,42,4.1,42,7.5V19"/>
	<g>
		<path fill="none" stroke="#45D3D3" stroke-width="2" stroke-miterlimit="10" d="M81.8,13.5c0,2.7,1.9,4.5,4.3,4.5h14.1
			c2.4,0,4.3-1.8,4.3-4.5l0,0c0-2.7-1.9-4.5-4.3-4.5h-14C83.8,9,81.8,10.8,81.8,13.5L81.8,13.5z"/>
		<line fill="none" stroke="#45D3D3" stroke-width="2" stroke-miterlimit="10" x1="93" y1="9" x2="93" y2="18"/>
		<path fill="none" stroke="#45D3D3" stroke-width="2" stroke-miterlimit="10" d="M51.1,13.5c0,2.7,1.9,4.5,4.3,4.5h14.1
			c2.4,0,4.3-1.8,4.3-4.5l0,0c0-2.7-1.9-4.5-4.3-4.5h-14C53.1,9,51.1,10.8,51.1,13.5L51.1,13.5z"/>
		<line fill="none" stroke="#45D3D3" stroke-width="2" stroke-miterlimit="10" x1="63" y1="9" x2="63" y2="18"/>
	</g>
	<g>
		<path fill="none" stroke="#45D3D3" stroke-width="2" stroke-miterlimit="10" d="M56,48c0-2.8-2.2-5-5-5H6c-2.8,0-5,2.2-5,5v61
			c0,2.8,2.2,5,5,5h45c2.8,0,5-2.2,5-5V48z"/>
		<rect x="10" y="18" fill="none" stroke="#45D3D3" stroke-width="2" stroke-miterlimit="10" width="37" height="15"/>
		<path fill="none" stroke="#45D3D3" stroke-width="2" stroke-miterlimit="10" d="M12.7,32.9c0,0,0.6,10-5.5,10"/>
		<path fill="none" stroke="#45D3D3" stroke-width="2" stroke-miterlimit="10" d="M44,32.9c0,0-0.6,10,5.5,10"/>
	</g>
	<g>
		<path fill="none" stroke="#45D3D3" stroke-width="2" stroke-miterlimit="10" d="M81.8,36c0,2.7,1.9,5,4.3,5h14.1
			c2.4,0,4.3-2.3,4.3-5l0,0c0-2.7-1.9-5-4.3-5h-14C83.8,31,81.8,33.3,81.8,36L81.8,36z"/>
		<line fill="none" stroke="#45D3D3" stroke-width="2" stroke-miterlimit="10" x1="93" y1="31" x2="93" y2="41"/>
		<path fill="none" stroke="#45D3D3" stroke-width="2" stroke-miterlimit="10" d="M51.1,36c0,2.7,1.9,5,4.3,5h14.1
			c2.4,0,4.3-2.3,4.3-5l0,0c0-2.7-1.9-5-4.3-5h-14C53.1,31,51.1,33.3,51.1,36L51.1,36z"/>
		<line fill="none" stroke="#45D3D3" stroke-width="2" stroke-miterlimit="10" x1="63" y1="31" x2="63" y2="41"/>
	</g>
	<g>
		<path fill="none" stroke="#45D3D3" stroke-width="2" stroke-miterlimit="10" d="M81.8,57.5c0,2.7,1.9,5.5,4.3,5.5h14.1
			c2.4,0,4.3-2.8,4.3-5.5l0,0c0-2.7-1.9-5.5-4.3-5.5h-14C83.8,52,81.8,54.8,81.8,57.5L81.8,57.5z"/>
		<line fill="none" stroke="#45D3D3" stroke-width="2" stroke-miterlimit="10" x1="93" y1="52" x2="93" y2="63"/>
		<path fill="none" stroke="#45D3D3" stroke-width="2" stroke-miterlimit="10" d="M57,63h12.5c2.4,0,4.3-2.8,4.3-5.5l0,0
			c0-2.7-1.9-5.5-4.3-5.5H57"/>
		<line fill="none" stroke="#45D3D3" stroke-width="2" stroke-miterlimit="10" x1="63" y1="52" x2="63" y2="63"/>
	</g>
	<g>
		<path fill="none" stroke="#45D3D3" stroke-width="2" stroke-miterlimit="10" d="M81.8,79c0,2.7,1.9,5,4.3,5h14.1
			c2.4,0,4.3-2.3,4.3-5l0,0c0-2.7-1.9-5-4.3-5h-14C83.8,74,81.8,76.3,81.8,79L81.8,79z"/>
		<line fill="none" stroke="#45D3D3" stroke-width="2" stroke-miterlimit="10" x1="93" y1="74" x2="93" y2="84"/>
		<path fill="none" stroke="#45D3D3" stroke-width="2" stroke-miterlimit="10" d="M57,84h12.5c2.4,0,4.3-2.3,4.3-5l0,0
			c0-2.7-1.9-5-4.3-5H57"/>
		<line fill="none" stroke="#45D3D3" stroke-width="2" stroke-miterlimit="10" x1="63" y1="74" x2="63" y2="84"/>
	</g>
	<g>
		<path fill="none" stroke="#45D3D3" stroke-width="2" stroke-miterlimit="10" d="M81.8,101.5c0,2.7,1.9,4.5,4.3,4.5h14.1
			c2.4,0,4.3-1.8,4.3-4.5l0,0c0-2.7-1.9-4.5-4.3-4.5h-14C83.8,97,81.8,98.8,81.8,101.5L81.8,101.5z"/>
		<line fill="none" stroke="#45D3D3" stroke-width="2" stroke-miterlimit="10" x1="93" y1="97" x2="93" y2="106"/>
		<path fill="none" stroke="#45D3D3" stroke-width="2" stroke-miterlimit="10" d="M57,106h12.5c2.4,0,4.3-1.8,4.3-4.5l0,0
			c0-2.7-1.9-4.5-4.3-4.5H57"/>
		<line fill="none" stroke="#45D3D3" stroke-width="2" stroke-miterlimit="10" x1="63" y1="97" x2="63" y2="106"/>
	</g>
	<rect x="1" y="54" fill="none" stroke="#45D3D3" stroke-width="2" stroke-miterlimit="10" width="55" height="49"/>
	<line fill="none" stroke="#45D3D3" stroke-width="2" stroke-miterlimit="10" x1="1" y1="61" x2="56" y2="61"/>
	<line fill="none" stroke="#45D3D3" stroke-width="2" stroke-miterlimit="10" x1="18" y1="27" x2="18" y2="33"/>
	<line fill="none" stroke="#45D3D3" stroke-width="2" stroke-miterlimit="10" x1="25" y1="27" x2="25" y2="33"/>
	<line fill="none" stroke="#45D3D3" stroke-width="2" stroke-miterlimit="10" x1="32" y1="27" x2="32" y2="33"/>
	<line fill="none" stroke="#45D3D3" stroke-width="2" stroke-miterlimit="10" x1="39" y1="27" x2="39" y2="33"/>
	<rect x="18.8" y="95" fill="#45D3D3" stroke="#45D3D3" stroke-miterlimit="10" width="1.9" height="1.9"/>
	<rect x="24.6" y="95" fill="#45D3D3" stroke="#45D3D3" stroke-miterlimit="10" width="1.9" height="1.9"/>
	<rect x="30.8" y="95" fill="#45D3D3" stroke="#45D3D3" stroke-miterlimit="10" width="1.9" height="1.9"/>
	<rect x="36.6" y="95" fill="#45D3D3" stroke="#45D3D3" stroke-miterlimit="10" width="1.9" height="1.9"/>
	<polygon fill="none" stroke="#45D3D3" stroke-width="2" stroke-miterlimit="10" points="39,75 32,75 32,68 26,68 26,75 19,75 
		19,81 26,81 26,88 32,88 32,81 39,81 	"/>
	<rect x="42.8" y="95" fill="#45D3D3" stroke="#45D3D3" stroke-miterlimit="10" width="1.9" height="1.9"/>
	<rect x="48.6" y="95" fill="#45D3D3" stroke="#45D3D3" stroke-miterlimit="10" width="1.9" height="1.9"/>
	<rect x="6.7" y="95" fill="#45D3D3" stroke="#45D3D3" stroke-miterlimit="10" width="1.9" height="1.9"/>
	<rect x="12.6" y="95" fill="#45D3D3" stroke="#45D3D3" stroke-miterlimit="10" width="1.9" height="1.9"/>
</g>
</svg>
