<?xml version="1.0" encoding="utf-8"?>
<!-- Generator: Adobe Illustrator 18.0.0, SVG Export Plug-In . SVG Version: 6.00 Build 0)  -->
<!DOCTYPE svg PUBLIC "-//W3C//DTD SVG 1.1//EN" "http://www.w3.org/Graphics/SVG/1.1/DTD/svg11.dtd">
<svg version="1.1" id="Слой_1" xmlns="http://www.w3.org/2000/svg" xmlns:xlink="http://www.w3.org/1999/xlink" x="0px" y="0px"
	 width="70px" height="119px" viewBox="0 0 70 119" enable-background="new 0 0 70 119" xml:space="preserve">
<g>
	<path fill-rule="evenodd" clip-rule="evenodd" fill="none" stroke="#2AD1C5" stroke-width="2" stroke-miterlimit="10" d="
		M38.1,59.6c0.4,5.1,1.8,9.6,4.9,16.4c2.9,6.1,5.9,13.7,6.2,20.8h-6.3v-1.3c0-6.3-2.6-11.7-5-17.1c-3.1-6.7-4.7-12.2-5.2-18.1
		 M49,99.4c-0.8,6.2-3.4,13.3-7,18.5h-8.3c4.4-5.3,7.7-12,8.8-18.5H49z"/>
	<path fill-rule="evenodd" clip-rule="evenodd" fill="none" stroke="#2AD1C5" stroke-width="2" stroke-miterlimit="10" d="
		M28.4,78.3h-5.5v18.5h5.5V78.3z M22.8,99.4v18.5h5.5V99.4H22.8z"/>
	<path fill-rule="evenodd" clip-rule="evenodd" fill="none" stroke="#2AD1C5" stroke-width="2" stroke-miterlimit="10" d="
		M21.4,96.8c-0.8,0-1.4,0.6-1.4,1.4l0,0c0,0.6,0.6,1.3,1.4,1.3h29.3c0.8,0,1.4-0.6,1.4-1.3l0,0c0-0.8-0.5-1.4-1.3-1.4H21.4z"/>
	<path fill-rule="evenodd" clip-rule="evenodd" fill="none" stroke="#2AD1C5" stroke-width="2" stroke-miterlimit="10" d="
		M35.3,62.7l4.4-4.4c2.4-2.4,2.4-6.4,0-8.8l0,0c-2.4-2.4-6.4-2.4-8.8,0l0,0c-2.5,2.4-2.5,6.4,0,8.8L35.3,62.7z"/>
	<path fill-rule="evenodd" clip-rule="evenodd" fill="none" stroke="#2AD1C5" stroke-width="2" stroke-miterlimit="10" d="
		M51.4,12.1l1.6,6c0.9,3.4-1.1,6.8-4.4,7.7l0,0c-3.3,0.9-6.8-1.1-7.7-4.4l0,0c-0.9-3.3,1.1-6.8,4.4-7.7L51.4,12.1z"/>
	<path fill-rule="evenodd" clip-rule="evenodd" fill="none" stroke="#2AD1C5" stroke-width="2" stroke-miterlimit="10" d="
		M19.1,68.1l6-1.6c3.4-0.9,5.3-4.3,4.4-7.5l0,0c-0.9-3.4-4.3-5.4-7.5-4.4l0,0c-3.4,0.9-5.3,4.3-4.4,7.5L19.1,68.1z"/>
	<path fill-rule="evenodd" clip-rule="evenodd" fill="none" stroke="#2AD1C5" stroke-width="2" stroke-miterlimit="10" d="
		M67.6,40.1l-4.4,4.4c-2.5,2.4-6.4,2.4-8.9,0l0,0c-2.4-2.4-2.4-6.4,0-8.8l0,0c2.5-2.5,6.4-2.5,8.9,0L67.6,40.1z"/>
	<path fill-rule="evenodd" clip-rule="evenodd" fill="none" stroke="#2AD1C5" stroke-width="2" stroke-miterlimit="10" d="M3,40.1
		l4.4,4.4c2.4,2.4,6.4,2.4,8.8,0l0,0c2.4-2.4,2.4-6.4,0-8.8l0,0c-2.4-2.5-6.4-2.5-8.8,0L3,40.1z"/>
	<path fill-rule="evenodd" clip-rule="evenodd" fill="none" stroke="#2AD1C5" stroke-width="2" stroke-miterlimit="10" d="
		M51.4,68.1l-6-1.6c-3.3-0.9-5.3-4.3-4.4-7.5l0,0c0.9-3.4,4.4-5.4,7.7-4.4l0,0c3.3,0.9,5.3,4.3,4.4,7.5L51.4,68.1z"/>
	<path fill-rule="evenodd" clip-rule="evenodd" fill="none" stroke="#2AD1C5" stroke-width="2" stroke-miterlimit="10" d="
		M19.1,12.1l-1.5,6c-0.9,3.4,1,6.8,4.4,7.7l0,0c3.3,0.9,6.7-1.1,7.5-4.4l0,0c0.9-3.3-1-6.8-4.4-7.7L19.1,12.1z"/>
	<path fill-rule="evenodd" clip-rule="evenodd" fill="none" stroke="#2AD1C5" stroke-width="2" stroke-miterlimit="10" d="
		M39.7,35.7L39.7,35.7c2.4,2.4,2.4,6.4,0,8.8l0,0c-2.4,2.4-6.4,2.4-8.8,0l0,0c-2.5-2.4-2.5-6.4,0-8.8l0,0
		C33.3,33.2,37.3,33.2,39.7,35.7L39.7,35.7z"/>
	<path fill-rule="evenodd" clip-rule="evenodd" fill="none" stroke="#2AD1C5" stroke-width="2" stroke-miterlimit="10" d="
		M54.8,28.8l-1.6,6c-0.9,3.3-4.3,5.3-7.5,4.4l0,0c-3.4-0.9-5.3-4.3-4.4-7.7l0,0c0.9-3.3,4.3-5.3,7.5-4.4L54.8,28.8z"/>
	<path fill-rule="evenodd" clip-rule="evenodd" fill="none" stroke="#2AD1C5" stroke-width="2" stroke-miterlimit="10" d="
		M15.7,51.3l6,1.6c3.4,0.9,6.8-1,7.7-4.4l0,0c0.9-3.3-1.1-6.7-4.4-7.5l0,0c-3.3-1-6.8,1-7.7,4.4L15.7,51.3z"/>
	<path fill-rule="evenodd" clip-rule="evenodd" fill="none" stroke="#2AD1C5" stroke-width="2" stroke-miterlimit="10" d="
		M54.8,51.3l-6,1.6c-3.3,0.9-6.7-1-7.5-4.4l0,0c-0.9-3.3,1-6.7,4.4-7.5l0,0c3.3-1,6.7,1,7.5,4.4L54.8,51.3z"/>
	<path fill-rule="evenodd" clip-rule="evenodd" fill="none" stroke="#2AD1C5" stroke-width="2" stroke-miterlimit="10" d="
		M15.7,28.8l1.6,6c0.9,3.3,4.4,5.3,7.7,4.4l0,0c3.3-0.9,5.3-4.3,4.4-7.7l0,0c-0.9-3.3-4.3-5.3-7.7-4.4L15.7,28.8z"/>
	<path fill-rule="evenodd" clip-rule="evenodd" fill="none" stroke="#2AD1C5" stroke-width="2" stroke-miterlimit="10" d="
		M35.3,17.5l4.4,4.4c2.4,2.5,2.4,6.4,0,8.8v0.1c-2.4,2.4-6.4,2.4-8.8,0v-0.1c-2.5-2.4-2.5-6.3,0-8.8L35.3,17.5z"/>
	<path fill-rule="evenodd" clip-rule="evenodd" fill="none" stroke="#2AD1C5" stroke-width="2" stroke-miterlimit="10" d="M35.3,1.6
		L39.7,6c2.4,2.4,2.4,6.4,0,8.8l0,0c-2.4,2.5-6.4,2.5-8.8,0l0,0c-2.5-2.4-2.5-6.4,0-8.8L35.3,1.6z"/>
	<path fill-rule="evenodd" clip-rule="evenodd" fill="none" stroke="#2AD1C5" stroke-width="2" stroke-miterlimit="10" d="
		M68.5,20.9l-1.5,6c-0.9,3.3-4.4,5.3-7.7,4.4l0,0c-3.3-0.9-5.3-4.4-4.4-7.7l0,0c0.9-3.3,4.3-5.3,7.7-4.4L68.5,20.9z"/>
	<path fill-rule="evenodd" clip-rule="evenodd" fill="none" stroke="#2AD1C5" stroke-width="2" stroke-miterlimit="10" d="M2,59.4
		l6,1.5c3.3,0.9,6.8-1,7.7-4.4l0,0c0.9-3.3-1.1-6.7-4.4-7.5l0,0c-3.4-0.9-6.8,1-7.7,4.4L2,59.4z"/>
	<path fill-rule="evenodd" clip-rule="evenodd" fill="none" stroke="#2AD1C5" stroke-width="2" stroke-miterlimit="10" d="
		M68.5,59.4l-5.9,1.5c-3.4,0.9-6.8-1-7.7-4.4l0,0c-0.9-3.3,1.1-6.7,4.4-7.5l0,0c3.3-0.9,6.8,1,7.7,4.4L68.5,59.4z"/>
	<path fill-rule="evenodd" clip-rule="evenodd" fill="none" stroke="#2AD1C5" stroke-width="2" stroke-miterlimit="10" d="M2,20.9
		l1.6,6c0.9,3.3,4.3,5.3,7.7,4.4l0,0c3.3-0.9,5.3-4.4,4.4-7.7l0,0c-0.9-3.3-4.4-5.3-7.7-4.4L2,20.9z"/>
</g>
</svg>
