<?xml version="1.0" encoding="utf-8"?>
<!-- Generator: Adobe Illustrator 18.0.0, SVG Export Plug-In . SVG Version: 6.00 Build 0)  -->
<!DOCTYPE svg PUBLIC "-//W3C//DTD SVG 1.1//EN" "http://www.w3.org/Graphics/SVG/1.1/DTD/svg11.dtd">
<svg version="1.1" id="Слой_1" xmlns="http://www.w3.org/2000/svg" xmlns:xlink="http://www.w3.org/1999/xlink" x="0px" y="0px"
	 width="121px" height="122px" viewBox="0 0 121 122" enable-background="new 0 0 121 122" xml:space="preserve">
<g>
	<path fill-rule="evenodd" clip-rule="evenodd" fill="none" stroke="#2AD1C5" stroke-width="2" stroke-miterlimit="10" d="
		M62.8,111.8c0.7,1,1.5,2,2.5,3.1c6.6,6.5,17.7,6.3,24.3-0.5c4.6-4.6,5.9-10.9,4.6-16.5c-7.6-9-18.9-14.8-31.4-15.3V111.8z
		 M26.1,99.1c-0.3,1.4-0.5,2.7-0.5,4.3c0,9.5,7.8,17.2,17.3,17c6.1-0.2,11.6-3.4,14.6-8.3V82.6C45,83.6,33.8,89.9,26.1,99.1
		L26.1,99.1z M9.3,64.5c-1,0.7-2,1.5-3.1,2.4c-6.8,7-6.8,17.9,0,24.5c4.4,4.4,10.7,5.8,16.3,4.3c8.5-10.2,21.1-17,35-18V63.5
		L9.3,64.5z M22.6,27.5c-1.4-0.3-2.7-0.3-4.1-0.3C9,27.3,1.1,35.1,1.1,44.6c0,6.1,3.2,11.6,8.2,14.5l48.3-0.9V44.3
		C43.6,43.8,31.1,37.3,22.6,27.5L22.6,27.5z M57.6,10c-0.7-1-1.5-2-2.4-3.1c-6.8-6.5-17.8-6.3-24.5,0.5c-4.4,4.6-5.9,10.9-4.6,16.5
		c7.6,9,18.9,14.8,31.4,15.3V10z M94.3,22.7c0.3-1.4,0.5-2.7,0.5-4.3c0-9.5-7.8-17.2-17.3-17c-6.1,0.2-11.6,3.4-14.6,8.3v29.4
		C75.4,38.2,86.6,32.1,94.3,22.7L94.3,22.7z M62.8,63.5v13.9c14.1,0.5,26.5,7,35,16.8c1.4,0.3,2.7,0.3,4.1,0.3
		c9.5-0.2,17.3-8,17.3-17.5c0-6.1-3.2-11.6-8-14.5L62.8,63.5z M111.1,57.2c1.2-0.7,2.2-1.5,3.1-2.4c6.8-7,6.8-17.9,0-24.5
		c-4.4-4.4-10.5-5.8-16.1-4.3c-8.7,10.2-21.1,17.2-35.2,18v14.1L111.1,57.2z"/>
</g>
</svg>
